<?xml version="1.0"?>
<svg xmlns="http://www.w3.org/2000/svg" height="512px" viewBox="0 -10 411.38348 411" width="512px" class=""><g><path d="m258.382812 48.203125c-26.058593-4.671875-52.199218-2.011719-75.691406 8.011719-23.496094-10.023438-49.636718-12.683594-75.695312-8.011719-70.511719 12.640625-113.652344 73.804687-96.351563 170.292969 17.296875 96.488281 88.484375 178.113281 158.992188 165.46875 4.46875-.800782 8.820312-1.964844 13.054687-3.457032 4.234375 1.492188 8.585938 2.65625 13.050782 3.457032 70.507812 12.640625 141.695312-68.980469 158.996093-165.46875 17.296875-96.488282-25.84375-157.652344-96.355469-170.292969" fill="#9af43b" data-original="#9AF43B" class=""/><path d="m258.382812 48.203125 1.207032-6.71875c-8.6875-1.558594-17.398438-2.339844-26.035156-2.339844-18.492188 0-36.660157 3.585938-53.542969 10.789063l2.679687 6.28125 2.679688-6.28125c-16.890625-7.203125-35.054688-10.789063-53.542969-10.789063-8.640625 0-17.347656.78125-26.035156 2.339844-31.382813 5.601563-58.078125 20.601563-76.707031 43.910156-18.652344 23.296875-29.101563 54.644531-29.085938 92.3125 0 13.21875 1.277344 27.234375 3.925781 41.992188 8.28125 46.097656 28.433594 88.777343 55.195313 120.285156 13.394531 15.75 28.460937 28.710937 44.652344 37.804687 16.179687 9.085938 33.542968 14.296876 51.261718 14.296876 5.253906 0 10.535156-.457032 15.808594-1.402344 4.835938-.867188 9.546875-2.128906 14.117188-3.738282l-2.269532-6.441406-2.273437 6.441406c4.570312 1.613282 9.28125 2.871094 14.121093 3.738282 5.269532.945312 10.550782 1.402344 15.804688 1.402344 17.71875 0 35.082031-5.210938 51.261719-14.296876 24.285156-13.652343 46.054687-35.964843 63.402343-63.410156 17.335938-27.457031 30.242188-60.109375 36.445313-94.679687 2.648437-14.761719 3.925781-28.773438 3.925781-41.992188.015625-37.667969-10.433594-69.019531-29.085937-92.3125-18.628907-23.308593-45.324219-38.308593-76.707031-43.910156l-1.203126 6.71875-1.203124 6.722656c28.605468 5.148438 52 18.464844 68.457031 39 16.433593 20.554688 26.074219 48.578125 26.089843 83.78125 0 12.339844-1.191406 25.550781-3.710937 39.582031-7.824219 43.730469-27.125 84.429688-52.160156 113.851563-12.507813 14.714844-26.429688 26.601563-40.933594 34.742187-14.515625 8.144532-29.558594 12.550782-44.578125 12.550782-4.460938 0-8.929688-.386719-13.394531-1.191406-4.097657-.730469-8.09375-1.796876-11.988281-3.171876-1.460938-.515624-3.082032-.515624-4.542969 0-3.894531 1.375-7.890625 2.441407-11.984375 3.171876-4.46875.800781-8.9375 1.191406-13.398438 1.191406-15.023437 0-30.0625-4.40625-44.578125-12.550782-21.765625-12.199218-42.1875-32.875-58.546875-58.792968-16.367187-25.90625-28.671875-57.003906-34.546875-89.800782-2.519531-14.035156-3.714843-27.242187-3.714843-39.582031.015624-35.203125 9.660156-63.226562 26.09375-83.78125 16.457031-20.535156 39.847656-33.847656 68.457031-39 7.910156-1.421875 15.8125-2.128906 23.628906-2.128906 16.726563 0 33.042969 3.238281 48.183594 9.695313 1.699219.726562 3.65625.726562 5.355469 0 15.140624-6.457032 31.457031-9.695313 48.183593-9.695313 7.816407 0 15.71875.707031 23.625 2.125z" fill="#54596e" data-original="#54596E" class="active-path" style="fill:#000000" data-old_color="#070707"/><path d="m14.398438 195.003906c.605468 7.175782 1.585937 14.605469 2.964843 22.285156 5.875 32.796876 18.179688 63.890626 34.546875 89.800782 16.359375 25.917968 36.78125 46.59375 58.546875 58.792968 14.511719 8.144532 29.554688 12.550782 44.578125 12.550782 4.460938 0 8.925782-.386719 13.398438-1.191406 4.09375-.730469 8.089844-1.796876 11.984375-3.171876.730469-.257812 1.5-.386718 2.269531-.386718s1.542969.128906 2.273438.386718c3.894531 1.375 7.890624 2.441407 11.988281 3.171876 4.464843.800781 8.933593 1.191406 13.394531 1.191406 15.019531 0 30.0625-4.40625 44.578125-12.550782 14.503906-8.140624 28.425781-20.027343 40.933594-34.742187 25.035156-29.421875 44.335937-70.121094 52.160156-113.851563 1.375-7.671874 2.355469-15.097656 2.960937-22.269531-20.59375 82.097657-79.445312 149.28125-140.632812 149.28125-4.859375 0-9.730469-.425781-14.601562-1.296875-4.464844-.800781-8.820313-1.964844-13.054688-3.457031-4.230469 1.492187-8.585938 2.65625-13.050781 3.457031-4.867188.871094-9.746094 1.296875-14.601563 1.296875-61.195312 0-120.046875-67.1875-140.636718-149.296875" fill="#8cd545" data-original="#8CD545" class=""/><path d="m357.390625 158.246094c-.628906 6.277344-1.472656 12.679687-2.652344 19.285156-1.058593 5.890625-2.316406 11.726562-3.757812 17.488281-.605469 7.171875-1.585938 14.597657-2.960938 22.269531-7.828125 43.730469-27.128906 84.429688-52.164062 113.851563-12.507813 14.714844-26.425781 26.601563-40.929688 34.742187-14.519531 8.144532-29.5625 12.550782-44.582031 12.550782-4.460938 0-8.925781-.386719-13.394531-1.191406-4.097657-.730469-8.089844-1.796876-11.988281-3.171876-.730469-.257812-1.5-.386718-2.269532-.386718-.769531 0-1.542968.128906-2.269531.386718-3.898437 1.375-7.894531 2.441407-11.988281 3.171876-4.46875.800781-8.9375 1.191406-13.398438 1.191406-15.019531 0-30.0625-4.40625-44.578125-12.550782-21.761719-12.199218-42.1875-32.875-58.542969-58.792968-16.367187-25.90625-28.675781-57.003906-34.550781-89.800782-1.375-7.675781-2.359375-15.109374-2.964843-22.285156-1.441407-5.757812-2.699219-11.585937-3.753907-17.472656-1.179687-6.605469-2.027343-13.011719-2.652343-19.285156-1.953126 18.175781-1.285157 38.238281 2.652343 60.246094 16.105469 89.824218 78.914063 166.765624 144.390625 166.765624 4.863282 0 9.734375-.421874 14.605469-1.296874 4.464844-.796876 8.820313-1.960938 13.050781-3.457032 4.234375 1.496094 8.589844 2.660156 13.054688 3.457032 4.867187.871093 9.746094 1.296874 14.601562 1.296874 65.484375 0 128.285156-76.9375 144.390625-166.765624 3.9375-22.007813 4.605469-42.074219 2.652344-60.246094" fill="#54596e" data-original="#54596E" class="active-path" style="fill:#000000" data-old_color="#070707"/><path d="m160.695312 93.230469c6.253907 4.171875 15.320313 6.796875 25.40625 6.796875 11.128907 0 21.015626-3.195313 27.25-8.140625" fill="#84ff61" data-original="#84FF61"/><path d="m156.90625 98.910156c7.691406 5.09375 17.921875 7.921875 29.195312 7.945313 12.4375-.042969 23.609376-3.4375 31.488282-9.617188 2.957031-2.34375 3.449218-6.636719 1.109375-9.589843-2.34375-2.953126-6.636719-3.449219-9.589844-1.105469-4.585937 3.707031-13.1875 6.703125-23.003906 6.660156-8.898438.027344-16.800781-2.398437-21.617188-5.648437-3.136719-2.09375-7.375-1.246094-9.464843 1.890624-2.097657 3.132813-1.253907 7.371094 1.882812 9.464844zm0 0" fill="#54596e" data-original="#54596E" class="active-path" style="fill:#000000" data-old_color="#070707"/><path d="m363.597656 175.125v40.957031h-232.109375v81.921875h235.035157c21.007812 0 38.035156-17.027344 38.035156-38.035156v-84.84375zm0 0" fill="#fff35f" data-original="#FFF35F" class=""/><g fill="#54596e"><path d="m363.597656 175.125h-6.828125v34.132812h-225.28125c-1.796875 0-3.554687.726563-4.828125 2-1.269531 1.269532-1.996094 3.027344-1.996094 4.824219v81.921875c0 1.796875.726563 3.554688 1.996094 4.824219 1.273438 1.273437 3.03125 2 4.828125 2h235.035157c24.78125 0 44.855468-20.078125 44.859374-44.859375v-84.84375c0-1.796875-.726562-3.554688-1.996093-4.828125-1.273438-1.269531-3.03125-2-4.828125-2h-40.960938c-1.796875 0-3.554687.730469-4.828125 2-1.269531 1.273437-1.996093 3.03125-1.996093 4.828125h6.824218v6.824219h34.132813v78.019531c-.003907 8.640625-3.480469 16.398438-9.140625 22.070312-5.667969 5.65625-13.425782 9.132813-22.066406 9.136719h-228.207032v-68.265625h225.277344c1.796875 0 3.554688-.730468 4.828125-2 1.269531-1.273437 2-3.03125 2-4.828125v-40.957031h-6.824219v6.824219zm0 0" data-original="#000000" class="" style="fill:#000000"/><path d="m194.425781.191406c-.613281.75-18.964843 24.0625-18.972656 66.304688 0 10.546875 1.144531 22.246094 3.984375 35.015625l13.328125-2.964844c-2.625-11.804687-3.660156-22.496094-3.660156-32.050781 0-19.101563 4.140625-33.691406 8.210937-43.464844 2.039063-4.886719 4.054688-8.5625 5.53125-10.96875.734375-1.203125 1.335938-2.085938 1.730469-2.644531l.433594-.59375.082031-.113281.007812-.011719-3.144531-2.476563 3.125 2.5.019531-.023437-3.144531-2.476563 3.125 2.5zm0 0" data-original="#000000" class="" style="fill:#000000"/><path d="m233.890625 127.335938c.003906 15.082031 12.21875 27.304687 27.304687 27.308593 15.085938-.003906 27.304688-12.226562 27.308594-27.308593 0-3.769532-3.058594-6.824219-6.828125-6.824219s-6.824219 3.054687-6.824219 6.824219c-.015624 7.539062-6.113281 13.640624-13.65625 13.652343-7.539062-.011719-13.636718-6.113281-13.652343-13.652343 0-3.769532-3.054688-6.824219-6.824219-6.824219-3.773438 0-6.828125 3.054687-6.828125 6.824219zm0 0" data-original="#000000" class="" style="fill:#000000"/><path d="m76.875 127.335938c.003906 15.082031 12.222656 27.304687 27.308594 27.308593 15.085937-.003906 27.304687-12.226562 27.304687-27.308593 0-3.769532-3.054687-6.824219-6.824219-6.824219-3.769531 0-6.828124 3.054687-6.828124 6.824219-.011719 7.539062-6.113282 13.640624-13.652344 13.652343-7.539063-.011719-13.640625-6.113281-13.652344-13.652343 0-3.769532-3.058594-6.824219-6.828125-6.824219s-6.828125 3.054687-6.828125 6.824219zm0 0" data-original="#000000" class="" style="fill:#000000"/><path d="m139.160156 180.183594c8.980469 9.757812 23.652344 15.363281 40.117188 15.417968 16.304687-.054687 30.84375-5.554687 39.847656-15.125 2.566406-2.761718 2.40625-7.082031-.355469-9.648437s-7.082031-2.40625-9.648437.355469c-5.433594 5.972656-16.710938 10.824218-29.847656 10.765625-13.265626.0625-24.632813-4.894531-30.003907-10.945313-2.535156-2.789062-6.851562-3-9.640625-.464844-2.792968 2.53125-3 6.851563-.46875 9.644532zm0 0" data-original="#000000" class="" style="fill:#000000"/><path d="m358.449219 134.164062h5.148437c22.621094 0 40.960938 18.339844 40.960938 40.960938 0 22.617188-18.339844 40.957031-40.960938 40.957031h-6.828125" data-original="#000000" class="" style="fill:#000000"/><path d="m358.449219 140.988281h5.148437c9.445313.003907 17.9375 3.8125 24.136719 10 6.1875 6.199219 9.992187 14.6875 9.996094 24.136719-.003907 9.445312-3.8125 17.933594-9.996094 24.132812-6.199219 6.191407-14.691406 9.996094-24.136719 10h-6.828125c-3.769531 0-6.824219 3.054688-6.824219 6.824219s3.054688 6.828125 6.824219 6.828125h6.828125c26.394532-.003906 47.78125-21.394531 47.785156-47.785156-.003906-26.394531-21.390624-47.78125-47.785156-47.789062h-5.148437c-3.769531 0-6.828125 3.058593-6.828125 6.828124 0 3.769532 3.058594 6.824219 6.828125 6.824219zm0 0" data-original="#000000" class="" style="fill:#000000"/><path d="m151.96875 216.082031v20.480469c0 3.769531 3.058594 6.828125 6.828125 6.828125s6.828125-3.058594 6.828125-6.828125v-20.480469c0-3.769531-3.058594-6.824219-6.828125-6.824219s-6.828125 3.054688-6.828125 6.824219" data-original="#000000" class="" style="fill:#000000"/><path d="m179.277344 216.082031v34.132813c0 3.773437 3.054687 6.828125 6.824218 6.828125 3.773438 0 6.828126-3.054688 6.828126-6.828125v-34.132813c0-3.769531-3.054688-6.824219-6.828126-6.824219-3.769531 0-6.824218 3.054688-6.824218 6.824219" data-original="#000000" class="" style="fill:#000000"/><path d="m206.582031 216.082031v20.480469c0 3.769531 3.058594 6.828125 6.828125 6.828125 3.769532 0 6.828125-3.058594 6.828125-6.828125v-20.480469c0-3.769531-3.058593-6.824219-6.828125-6.824219-3.769531 0-6.828125 3.054688-6.828125 6.824219" data-original="#000000" class="" style="fill:#000000"/><path d="m233.890625 216.082031v34.132813c0 3.773437 3.054687 6.828125 6.828125 6.828125 3.769531 0 6.824219-3.054688 6.824219-6.828125v-34.132813c0-3.769531-3.054688-6.824219-6.824219-6.824219-3.773438 0-6.828125 3.054688-6.828125 6.824219" data-original="#000000" class="" style="fill:#000000"/><path d="m261.195312 216.082031v20.480469c0 3.769531 3.058594 6.828125 6.828126 6.828125 3.769531 0 6.828124-3.058594 6.828124-6.828125v-20.480469c0-3.769531-3.058593-6.824219-6.828124-6.824219-3.769532 0-6.828126 3.054688-6.828126 6.824219" data-original="#000000" class="" style="fill:#000000"/><path d="m288.503906 216.082031v34.132813c0 3.773437 3.054688 6.828125 6.828125 6.828125 3.769531 0 6.824219-3.054688 6.824219-6.828125v-34.132813c0-3.769531-3.054688-6.824219-6.824219-6.824219-3.773437 0-6.828125 3.054688-6.828125 6.824219" data-original="#000000" class="" style="fill:#000000"/><path d="m315.808594 216.082031v20.480469c0 3.769531 3.058594 6.828125 6.828125 6.828125s6.828125-3.058594 6.828125-6.828125v-20.480469c0-3.769531-3.058594-6.824219-6.828125-6.824219s-6.828125 3.054688-6.828125 6.824219" data-original="#000000" class="" style="fill:#000000"/><path d="m343.117188 216.082031v34.132813c0 3.773437 3.054687 6.828125 6.828124 6.828125 3.769532 0 6.824219-3.054688 6.824219-6.828125v-34.132813c0-3.769531-3.054687-6.824219-6.824219-6.824219-3.773437 0-6.828124 3.054688-6.828124 6.824219" data-original="#000000" class="" style="fill:#000000"/></g></g> </svg>
